<svg width="709" height="730" xmlns="http://www.w3.org/2000/svg" xmlns:xlink="http://www.w3.org/1999/xlink" overflow="hidden"><defs><clipPath id="clip0"><path d="M479 6 1188 6 1188 736 479 736Z" fill-rule="evenodd" clip-rule="evenodd"/></clipPath></defs><g clip-path="url(#clip0)" transform="translate(-479 -6)"><path d="M1175.11 310.956C1088.41 295.474 1088.41 295.474 1088.41 295.474 1082.22 270.702 1069.83 249.026 1057.45 227.351 1110.09 156.132 1110.09 156.132 1110.09 156.132 1116.28 149.939 1116.28 140.649 1110.09 137.553 1057.45 84.9123 1057.45 84.9123 1057.45 84.9123 1054.35 81.8158 1045.06 81.8158 1038.87 84.9123 967.649 137.553 967.649 137.553 967.649 137.553 945.974 125.167 924.298 115.877 899.526 109.684 887.14 19.886 887.14 19.886 887.14 19.886 884.044 13.693 877.851 7.50005 871.658 7.50005 800.439 7.50005 800.439 7.50005 800.439 7.50005 791.149 7.50005 784.956 13.693 784.956 19.886 769.474 109.684 769.474 109.684 769.474 109.684 747.798 115.877 723.026 125.167 701.351 137.553 630.132 84.9123 630.132 84.9123 630.132 84.9123 623.939 81.8158 617.746 81.8158 611.553 84.9123 558.912 137.553 558.912 137.553 558.912 137.553 555.816 140.649 555.816 149.939 558.912 156.132 611.553 227.351 611.553 227.351 611.553 227.351 599.167 249.026 589.877 270.702 583.684 295.474 493.886 310.956 493.886 310.956 493.886 310.956 487.693 310.956 481.5 317.149 481.5 323.342 481.5 397.658 481.5 397.658 481.5 397.658 481.5 403.851 487.693 410.044 493.886 413.14 583.684 425.526 583.684 425.526 583.684 425.526 589.877 450.298 599.167 471.974 611.553 493.649 558.912 564.868 558.912 564.868 558.912 564.868 555.816 571.061 555.816 580.351 558.912 583.447 611.553 636.088 611.553 636.088 611.553 636.088 617.746 639.184 623.939 642.281 630.132 636.088 701.351 583.447 701.351 583.447 701.351 583.447 723.026 595.833 747.798 605.123 769.474 611.316 784.956 701.114 784.956 701.114 784.956 701.114 784.956 707.307 791.149 713.5 800.439 713.5 871.658 713.5 871.658 713.5 871.658 713.5 877.851 713.5 884.044 707.307 887.14 701.114 899.526 611.316 899.526 611.316 899.526 611.316 924.298 605.123 945.974 595.833 967.649 583.447 1038.87 636.088 1038.87 636.088 1038.87 636.088 1045.06 642.281 1054.35 639.184 1057.45 636.088 1110.09 583.447 1110.09 583.447 1110.09 583.447 1116.28 580.351 1116.28 571.061 1110.09 564.868 1057.45 493.649 1057.45 493.649 1057.45 493.649 1069.83 471.974 1082.22 450.298 1088.41 425.526 1175.11 413.14 1175.11 413.14 1175.11 413.14 1181.31 410.044 1187.5 403.851 1187.5 397.658 1187.5 323.342 1187.5 323.342 1187.5 323.342 1187.5 317.149 1181.31 310.956 1175.11 310.956ZM834.5 490.553C763.281 490.553 704.447 431.719 704.447 360.5 704.447 289.281 763.281 230.447 834.5 230.447 905.719 230.447 964.553 289.281 964.553 360.5 964.553 431.719 905.719 490.553 834.5 490.553Z" stroke="#44546A" stroke-linejoin="round" stroke-miterlimit="10" fill="#203864" fill-rule="evenodd"/><path d="M1005.14 529.85C910.276 624 756.355 624 661.493 529.85 567 435.699 567 282.934 661.493 188.784 756.355 95 910.276 95 1005.14 188.784 1100 282.934 1100 435.699 1005.14 529.85Z" fill="#065280" fill-rule="evenodd"/><path d="M971.086 494.455C895.173 569 772.458 569 696.545 494.455 621 419.545 621 298.455 696.545 223.545 772.458 149 895.173 149 971.086 223.545 1047 298.455 1047 419.545 971.086 494.455Z" fill="#34B2E3" fill-rule="evenodd"/><text fill="#FFFFFF" font-family="Bahnschrift,Bahnschrift_MSFontService,sans-serif" font-weight="700" font-stretch="condensed" font-size="319" transform="translate(696.727 478)">C<tspan x="133.333" y="0">B</tspan></text></g></svg>